# xmcd
#
# Track frame offsets:
#  150
#  16314
#  33479
#  49656
#  64945
#  82122
#  96049
#  112876
#  128840
#  148667
#  165657
#  180534
#  194324
#  211601
#  232088
#  247215
#  260105
#  276107
#  296059
#
# Disc length: 4215 seconds
#
# Revision: 0
# Processed by: cddbd v1.5.1PL2 Copyright (c) Steve Scherf et al.
# Submitted via: Collectorz.com_Music_Collector 6.9
#
DISCID=1c107513
DTITLE=Paul King - Houdini's Moon
DYEAR=1995
DGENRE=King and Earl
TTITLE0=Houdini
TTITLE1=Children Of Darkness
TTITLE2=Listen To The Reason
TTITLE3=Station Called Love
TTITLE4=Sugar Cane
TTITLE5=Enemy Number 1
TTITLE6=Flying Machine
TTITLE7=All The Night
TTITLE8=Losing Your Love
TTITLE9=Tramp
TTITLE10=Saturday Matinee
TTITLE11=If You See My Baby
TTITLE12=Cardboard City
TTITLE13=Buffalo Song
TTITLE14=Vigilante Man
TTITLE15=Deborah
TTITLE16=Phobia
TTITLE17=Yesterday's Gone
TTITLE18=On And On
EXTD=
EXTT0=
EXTT1=
EXTT2=
EXTT3=
EXTT4=
EXTT5=
EXTT6=
EXTT7=
EXTT8=
EXTT9=
EXTT10=
EXTT11=
EXTT12=
EXTT13=
EXTT14=
EXTT15=
EXTT16=
EXTT17=
EXTT18=
PLAYORDER=
